<svg width="208" height="37" viewBox="0 0 208 37" fill="none" xmlns="http://www.w3.org/2000/svg">
<path d="M208 28.6482H179.892V27.715H208V28.6482ZM193.994 23.4224L196.661 20.9029L197.71 21.9294L194.851 24.2623C194.661 24.5422 194.47 25.0088 194.279 25.2888H192.183C192.52 24.4624 193.168 23.7943 193.994 23.4224ZM185.037 7.55864C184.942 7.55864 182.846 8.11854 182.846 8.11854C182.357 8.30866 181.879 8.52677 181.416 8.77175C180.94 9.0517 180.464 9.51828 180.464 9.79823L182.369 10.2648C182.631 9.96199 182.918 9.68107 183.227 9.42497L183.703 9.23833L185.228 7.65195C185.323 7.55864 185.323 7.46532 184.989 7.55864H185.037ZM197.9 12.5977C196.74 11.3566 195.659 10.0478 194.661 8.67844C195.378 6.93394 195.64 5.04152 195.423 3.17276C195.034 2.48477 194.588 1.82934 194.089 1.21311C193.898 0.933165 193.041 0 192.66 0C192.564 0 192.469 -3.47631e-08 192.469 0.0933165L192.564 1.1198C191.326 1.86633 189.896 2.7995 188.658 3.73266C188.633 4.10848 188.665 4.48578 188.753 4.85246C188.953 5.01127 189.179 5.13731 189.42 5.22572C190.268 5.0252 191.127 4.86945 191.993 4.75914L190.373 7.09205L188.467 8.39849L186.18 7.65195C185.99 7.65195 185.895 7.65195 185.799 7.74527L184.084 9.51828C184.026 9.5627 183.979 9.61926 183.946 9.68383C183.913 9.7484 183.895 9.81937 183.894 9.89155L183.798 11.8512V12.5044C183.767 13.2731 184.002 14.0296 184.465 14.6507L185.513 13.0643C185.298 12.7167 185.137 12.3391 185.037 11.9445V10.2648L186.085 9.51828L188.944 11.4779C189.378 12.2704 189.888 13.0203 190.468 13.7175C191.739 14.8049 193.11 15.7734 194.565 16.6103C194.687 17.3416 194.879 18.0601 195.137 18.7566L198.567 22.2093L196.566 24.7289C196.181 24.928 195.855 25.222 195.621 25.582C195.387 25.9421 195.253 26.3556 195.232 26.7818H197.614L197.9 25.4754L200.759 22.396C200.949 22.2093 200.949 22.116 200.854 21.9294L200.092 19.3165C200.815 18.5102 201.25 17.4944 201.33 16.4237C201.33 13.9042 198.758 13.2509 197.9 12.5511V12.5977ZM202.188 16.7037C202.013 16.0966 201.79 15.5038 201.521 14.9306C201.521 14.9306 201.616 14.8373 201.902 14.9306C202.188 15.024 203.617 16.0504 203.617 16.0504C204.379 17.0769 204.856 21.5561 204.856 23.1425C204.021 22.8007 203.248 22.3279 202.569 21.7427L202.188 16.7037ZM129.202 15.6772C129.202 13.9975 128.63 12.691 127.201 12.691C125.772 12.691 125.105 13.9975 125.105 15.6772V26.7818H126.82V28.5549H117.197V26.7818H119.007V11.4779H117.197V9.75158H124.724V12.6444H124.819C125.242 11.6758 125.946 10.8502 126.844 10.2696C127.741 9.68907 128.793 9.37917 129.869 9.37831C131.056 9.30859 132.227 9.66984 133.159 10.3929C134.09 11.1161 134.717 12.1502 134.919 13.2976C135.104 14.3141 135.2 15.3444 135.205 16.377V26.8285H137.492V28.6015H129.107L129.202 15.6305M90.2318 15.6305C90.2318 13.9508 89.6601 12.6444 88.2309 12.6444C86.8016 12.6444 86.1347 13.9508 86.1347 15.6305V26.7352H87.8497V28.5082H78.2263V26.7352H80.0366V11.4779H78.2263V9.75158H85.7535V12.6444H85.8488C86.272 11.6758 86.976 10.8502 87.8736 10.2696C88.7713 9.68907 89.8231 9.37917 90.8988 9.37831C92.0854 9.30859 93.2567 9.66984 94.1884 10.3929C95.1201 11.1161 95.7468 12.1502 95.9487 13.2976C96.1341 14.3141 96.2297 15.3444 96.2345 16.377V26.8285H98.5213V28.6015H90.1365L90.2318 15.6305ZM145.781 11.4313V25.3354C145.766 25.4983 145.789 25.6624 145.846 25.816C145.903 25.9697 145.993 26.1092 146.112 26.2248C146.23 26.3404 146.372 26.4293 146.529 26.4853C146.686 26.5412 146.853 26.5628 147.02 26.5485C147.408 26.539 147.793 26.4762 148.163 26.3619V28.0416C147.016 28.6142 145.732 28.8722 144.447 28.7881C141.493 28.7881 139.683 27.3884 139.683 24.309V11.4779H137.682V10.2648C139.969 8.4918 142.637 6.43884 144.733 4.75914H145.876V9.75158H148.782V11.4313H145.781ZM25.6308 0C25.6308 0 30.2996 4.57251 32.3958 6.90542V8.67844C29.6868 6.25105 26.1581 4.88862 22.4865 4.85246C13.8158 4.85246 8.38479 11.2913 8.38479 19.2232C8.38479 27.1551 13.53 33.5006 22.4865 33.5006C24.3555 33.516 26.2078 33.1553 27.9287 32.441C29.6496 31.7267 31.2025 30.674 32.4911 29.348V31.0277C29.8232 34.6671 24.8685 37 18.6752 37C7.62254 37.0933 0 29.2547 0 19.2699C0.0173681 16.8903 0.515062 14.5376 1.46444 12.3471C2.41382 10.1567 3.79613 8.17175 5.53183 6.50654C7.26753 4.84133 9.32235 3.52874 11.578 2.6443C13.8337 1.75986 16.2457 1.32104 18.6752 1.35309C21.0399 1.36023 23.3882 1.73828 25.6308 2.47289V0ZM114.338 23.6091C113.827 24.2018 113.182 24.6704 112.455 24.9781C111.727 25.2857 110.937 25.424 110.146 25.3821C108.431 25.3821 105.667 24.4489 105.572 20.0631H115.863C115.863 19.6898 115.958 19.0366 115.958 18.6633C115.958 13.3443 113.766 9.42497 107.954 9.42497C102.142 9.42497 99.1883 13.8108 99.1883 19.2232C99.1883 24.6356 102.142 28.9281 107.954 28.9281C109.511 29.0096 111.058 28.6363 112.398 27.8554C113.738 27.0746 114.812 25.9214 115.481 24.5422L114.338 23.6091ZM105.477 18.1967C105.477 13.2509 105.858 11.3846 107.573 11.3846C109.288 11.3846 109.669 13.1576 109.765 18.1967H105.477ZM20.5809 19.1299C20.5809 13.3443 21.1525 10.8247 23.1535 10.8247C25.1544 10.8247 25.7261 13.3443 25.7261 19.1299C25.7261 24.9155 25.1544 27.4351 23.1535 27.4351C21.1525 27.4351 20.5809 24.9155 20.5809 19.1299ZM13.4347 19.2232C13.4347 24.9155 16.9601 29.5813 23.1535 29.5813C29.3468 29.5813 32.8722 24.9155 32.8722 19.2232C32.8722 13.5309 29.3468 8.81841 23.1535 8.81841C16.9601 8.81841 13.4347 13.4842 13.4347 19.1765M46.4022 15.6305C46.4022 13.9508 45.8305 12.6444 44.4013 12.6444C42.9721 12.6444 42.3051 13.9508 42.3051 15.6305V26.7352H43.9725V28.5082H34.3967V26.7352H36.2071V11.4779H34.3967V9.75158H41.924V12.6444H42.0192C42.4424 11.6758 43.1464 10.8502 44.0441 10.2696C44.9417 9.68907 45.9935 9.37917 47.0692 9.37831C48.2558 9.30859 49.4271 9.66984 50.3588 10.3929C51.2905 11.1161 51.9172 12.1502 52.1191 13.2976C52.3045 14.3141 52.4001 15.3444 52.4049 16.377V26.8285H54.6917V28.6015H46.3069V15.6772L46.4022 15.6305ZM68.2217 4.71248C68.2217 6.39218 69.7462 7.51198 71.9377 7.51198C74.1292 7.51198 75.6537 6.39218 75.6537 4.71248C75.6537 3.03279 74.1292 1.91299 71.9377 1.91299C69.7462 1.91299 68.2217 3.1261 68.2217 4.71248ZM62.9812 11.4313V25.3354C62.9667 25.4983 62.9887 25.6624 63.0458 25.816C63.1029 25.9697 63.1937 26.1092 63.3118 26.2248C63.4298 26.3404 63.5723 26.4293 63.7292 26.4853C63.8861 26.5412 64.0536 26.5628 64.2199 26.5485C64.608 26.539 64.9929 26.4762 65.3633 26.3619V28.0416C64.216 28.6142 62.932 28.8722 61.6473 28.7881C58.6935 28.7881 56.8832 27.3884 56.8832 24.309V11.4779H54.8823V10.2648C57.169 8.4918 59.8369 6.43884 61.9331 4.75914H63.0289V9.75158H65.4109V11.4313H62.9812ZM175.414 26.8285H177.796V28.6015H169.316V4.57251H167.219V2.7995H175.461V26.8752L175.414 26.8285ZM159.12 19.2699C158.744 18.9778 158.264 18.8436 157.787 18.8966C155.976 18.8966 155.595 20.6696 155.595 22.4426C155.595 24.2156 156.167 25.6154 157.691 25.6154C157.958 25.6406 158.227 25.6029 158.475 25.5055C158.724 25.4081 158.945 25.2538 159.12 25.0555V19.2699ZM159.311 26.3619C158.765 27.1813 158.015 27.851 157.131 28.3081C156.248 28.7652 155.26 28.9946 154.261 28.9748C151.117 28.9748 149.211 26.3619 149.211 23.1892C149.211 19.4565 151.974 17.0303 156.357 17.0303C157.293 16.9976 158.228 17.1239 159.12 17.4035V16.1904C159.161 15.727 159.098 15.2604 158.935 14.8235C158.772 14.3865 158.514 13.9897 158.178 13.6608C157.842 13.3318 157.437 13.0788 156.991 12.9194C156.545 12.7599 156.068 12.6979 155.595 12.7377C154.735 12.7394 153.887 12.9438 153.124 13.3335C152.362 13.7233 151.706 14.2871 151.212 14.9773L150.164 13.6709C150.965 12.3864 152.083 11.32 153.415 10.5699C154.747 9.81972 156.25 9.40995 157.787 9.37831C162.455 9.37831 165.218 12.0845 165.218 16.1904V26.8285H167.219V28.6015H159.406L159.311 26.3619ZM67.1736 28.6015V26.8285H68.8887V11.4779H67.1736V9.75158H74.9867V26.8285H76.7971V28.6015H67.1736Z" fill="#F5F5F5"/>
</svg>
